<mxfile host="Electron" modified="2024-04-09T08:24:23.937Z" agent="Mozilla/5.0 (Windows NT 10.0; Win64; x64) AppleWebKit/537.36 (KHTML, like Gecko) draw.io/24.1.0 Chrome/120.0.6099.109 Electron/28.1.0 Safari/537.36" etag="cdcWB3knMRPrTh-cMf5G" version="24.1.0" type="device">
  <diagram name="Page-1" id="LjZXa7_nK6VRFPgZkcE7">
    <mxGraphModel dx="5129" dy="2576" grid="1" gridSize="10" guides="1" tooltips="1" connect="1" arrows="1" fold="1" page="1" pageScale="1" pageWidth="827" pageHeight="1169" math="0" shadow="0">
      <root>
        <mxCell id="0" />
        <mxCell id="1" parent="0" />
        <mxCell id="JdqOerF6xTBq6fjEBsue-1" value="Main" style="swimlane;fontStyle=1;align=center;verticalAlign=top;childLayout=stackLayout;horizontal=1;startSize=26;horizontalStack=0;resizeParent=1;resizeParentMax=0;resizeLast=0;collapsible=1;marginBottom=0;whiteSpace=wrap;html=1;" parent="1" vertex="1">
          <mxGeometry x="280" y="-760" width="160" height="60" as="geometry" />
        </mxCell>
        <mxCell id="JdqOerF6xTBq6fjEBsue-3" value="" style="line;strokeWidth=1;fillColor=none;align=left;verticalAlign=middle;spacingTop=-1;spacingLeft=3;spacingRight=3;rotatable=0;labelPosition=right;points=[];portConstraint=eastwest;strokeColor=inherit;" parent="JdqOerF6xTBq6fjEBsue-1" vertex="1">
          <mxGeometry y="26" width="160" height="8" as="geometry" />
        </mxCell>
        <mxCell id="JdqOerF6xTBq6fjEBsue-4" value="+ main():void static" style="text;strokeColor=none;fillColor=none;align=left;verticalAlign=top;spacingLeft=4;spacingRight=4;overflow=hidden;rotatable=0;points=[[0,0.5],[1,0.5]];portConstraint=eastwest;whiteSpace=wrap;html=1;" parent="JdqOerF6xTBq6fjEBsue-1" vertex="1">
          <mxGeometry y="34" width="160" height="26" as="geometry" />
        </mxCell>
        <mxCell id="JdqOerF6xTBq6fjEBsue-5" value="Car" style="swimlane;fontStyle=1;align=center;verticalAlign=top;childLayout=stackLayout;horizontal=1;startSize=26;horizontalStack=0;resizeParent=1;resizeParentMax=0;resizeLast=0;collapsible=1;marginBottom=0;whiteSpace=wrap;html=1;" parent="1" vertex="1">
          <mxGeometry x="40" y="-90" width="160" height="220" as="geometry" />
        </mxCell>
        <mxCell id="JdqOerF6xTBq6fjEBsue-6" value="- model: String&lt;div&gt;- brand: String&lt;/div&gt;&lt;div&gt;- horsepower: int&lt;/div&gt;&lt;div&gt;- brakeForce: double&lt;/div&gt;&lt;div&gt;- posture: double&lt;/div&gt;&lt;div&gt;- weight: double&lt;/div&gt;&lt;div&gt;highspeed: int&lt;/div&gt;&lt;div&gt;acceleration: double&lt;/div&gt;&lt;div&gt;image: ?&lt;/div&gt;&lt;div&gt;price: double&lt;/div&gt;&lt;div&gt;mods[]: mod&lt;/div&gt;" style="text;strokeColor=none;fillColor=none;align=left;verticalAlign=top;spacingLeft=4;spacingRight=4;overflow=hidden;rotatable=0;points=[[0,0.5],[1,0.5]];portConstraint=eastwest;whiteSpace=wrap;html=1;" parent="JdqOerF6xTBq6fjEBsue-5" vertex="1">
          <mxGeometry y="26" width="160" height="164" as="geometry" />
        </mxCell>
        <mxCell id="JdqOerF6xTBq6fjEBsue-7" value="" style="line;strokeWidth=1;fillColor=none;align=left;verticalAlign=middle;spacingTop=-1;spacingLeft=3;spacingRight=3;rotatable=0;labelPosition=right;points=[];portConstraint=eastwest;strokeColor=inherit;" parent="JdqOerF6xTBq6fjEBsue-5" vertex="1">
          <mxGeometry y="190" width="160" height="8" as="geometry" />
        </mxCell>
        <mxCell id="JdqOerF6xTBq6fjEBsue-8" value="+accessors" style="text;strokeColor=none;fillColor=none;align=left;verticalAlign=top;spacingLeft=4;spacingRight=4;overflow=hidden;rotatable=0;points=[[0,0.5],[1,0.5]];portConstraint=eastwest;whiteSpace=wrap;html=1;" parent="JdqOerF6xTBq6fjEBsue-5" vertex="1">
          <mxGeometry y="198" width="160" height="22" as="geometry" />
        </mxCell>
        <mxCell id="JdqOerF6xTBq6fjEBsue-9" value="User" style="swimlane;fontStyle=1;align=center;verticalAlign=top;childLayout=stackLayout;horizontal=1;startSize=26;horizontalStack=0;resizeParent=1;resizeParentMax=0;resizeLast=0;collapsible=1;marginBottom=0;whiteSpace=wrap;html=1;" parent="1" vertex="1">
          <mxGeometry x="530" y="-90" width="160" height="110" as="geometry" />
        </mxCell>
        <mxCell id="JdqOerF6xTBq6fjEBsue-10" value="- username&lt;div&gt;- password&lt;/div&gt;&lt;div&gt;- myCars[]: Car&lt;/div&gt;" style="text;strokeColor=none;fillColor=none;align=left;verticalAlign=top;spacingLeft=4;spacingRight=4;overflow=hidden;rotatable=0;points=[[0,0.5],[1,0.5]];portConstraint=eastwest;whiteSpace=wrap;html=1;" parent="JdqOerF6xTBq6fjEBsue-9" vertex="1">
          <mxGeometry y="26" width="160" height="54" as="geometry" />
        </mxCell>
        <mxCell id="JdqOerF6xTBq6fjEBsue-11" value="" style="line;strokeWidth=1;fillColor=none;align=left;verticalAlign=middle;spacingTop=-1;spacingLeft=3;spacingRight=3;rotatable=0;labelPosition=right;points=[];portConstraint=eastwest;strokeColor=inherit;" parent="JdqOerF6xTBq6fjEBsue-9" vertex="1">
          <mxGeometry y="80" width="160" height="8" as="geometry" />
        </mxCell>
        <mxCell id="JdqOerF6xTBq6fjEBsue-12" value="+accessors" style="text;strokeColor=none;fillColor=none;align=left;verticalAlign=top;spacingLeft=4;spacingRight=4;overflow=hidden;rotatable=0;points=[[0,0.5],[1,0.5]];portConstraint=eastwest;whiteSpace=wrap;html=1;" parent="JdqOerF6xTBq6fjEBsue-9" vertex="1">
          <mxGeometry y="88" width="160" height="22" as="geometry" />
        </mxCell>
        <mxCell id="JdqOerF6xTBq6fjEBsue-13" value="Mod" style="swimlane;fontStyle=1;align=center;verticalAlign=top;childLayout=stackLayout;horizontal=1;startSize=26;horizontalStack=0;resizeParent=1;resizeParentMax=0;resizeLast=0;collapsible=1;marginBottom=0;whiteSpace=wrap;html=1;" parent="1" vertex="1">
          <mxGeometry x="270" y="-90" width="180" height="210" as="geometry" />
        </mxCell>
        <mxCell id="JdqOerF6xTBq6fjEBsue-14" value="- name: String&lt;div&gt;- category: String&lt;/div&gt;&lt;div&gt;- changeOfHorsePower: int&lt;/div&gt;&lt;div&gt;- changeOfBrakeForce: double&lt;/div&gt;&lt;div&gt;- changeOfPosture: double&lt;/div&gt;&lt;div&gt;- changeOfWeight: double&lt;/div&gt;&lt;div&gt;- changeOfHighspeed: int&lt;/div&gt;&lt;div&gt;- changeOfAcceleration: double&lt;/div&gt;&lt;div&gt;- changeOfPrice&lt;/div&gt;&lt;div&gt;- image: ?&lt;/div&gt;" style="text;strokeColor=none;fillColor=none;align=left;verticalAlign=top;spacingLeft=4;spacingRight=4;overflow=hidden;rotatable=0;points=[[0,0.5],[1,0.5]];portConstraint=eastwest;whiteSpace=wrap;html=1;" parent="JdqOerF6xTBq6fjEBsue-13" vertex="1">
          <mxGeometry y="26" width="180" height="154" as="geometry" />
        </mxCell>
        <mxCell id="JdqOerF6xTBq6fjEBsue-15" value="" style="line;strokeWidth=1;fillColor=none;align=left;verticalAlign=middle;spacingTop=-1;spacingLeft=3;spacingRight=3;rotatable=0;labelPosition=right;points=[];portConstraint=eastwest;strokeColor=inherit;" parent="JdqOerF6xTBq6fjEBsue-13" vertex="1">
          <mxGeometry y="180" width="180" height="8" as="geometry" />
        </mxCell>
        <mxCell id="JdqOerF6xTBq6fjEBsue-16" value="+accessors" style="text;strokeColor=none;fillColor=none;align=left;verticalAlign=top;spacingLeft=4;spacingRight=4;overflow=hidden;rotatable=0;points=[[0,0.5],[1,0.5]];portConstraint=eastwest;whiteSpace=wrap;html=1;" parent="JdqOerF6xTBq6fjEBsue-13" vertex="1">
          <mxGeometry y="188" width="180" height="22" as="geometry" />
        </mxCell>
        <mxCell id="JdqOerF6xTBq6fjEBsue-17" value="CarModel" style="swimlane;fontStyle=1;align=center;verticalAlign=top;childLayout=stackLayout;horizontal=1;startSize=26;horizontalStack=0;resizeParent=1;resizeParentMax=0;resizeLast=0;collapsible=1;marginBottom=0;whiteSpace=wrap;html=1;" parent="1" vertex="1">
          <mxGeometry x="40" y="-250" width="160" height="140" as="geometry" />
        </mxCell>
        <mxCell id="JdqOerF6xTBq6fjEBsue-18" value="- cars[]: Car" style="text;strokeColor=none;fillColor=none;align=left;verticalAlign=top;spacingLeft=4;spacingRight=4;overflow=hidden;rotatable=0;points=[[0,0.5],[1,0.5]];portConstraint=eastwest;whiteSpace=wrap;html=1;" parent="JdqOerF6xTBq6fjEBsue-17" vertex="1">
          <mxGeometry y="26" width="160" height="26" as="geometry" />
        </mxCell>
        <mxCell id="JdqOerF6xTBq6fjEBsue-19" value="" style="line;strokeWidth=1;fillColor=none;align=left;verticalAlign=middle;spacingTop=-1;spacingLeft=3;spacingRight=3;rotatable=0;labelPosition=right;points=[];portConstraint=eastwest;strokeColor=inherit;" parent="JdqOerF6xTBq6fjEBsue-17" vertex="1">
          <mxGeometry y="52" width="160" height="8" as="geometry" />
        </mxCell>
        <mxCell id="JdqOerF6xTBq6fjEBsue-20" value="+ addCar(Car car): void&lt;div&gt;+ searchCar(Car car): car&lt;/div&gt;&lt;div&gt;+ updateCar(Car car,&amp;nbsp; &amp;nbsp; &amp;nbsp; &amp;nbsp; &amp;nbsp; &amp;nbsp; &amp;nbsp; &amp;nbsp;NewCar, newCar):void&lt;/div&gt;&lt;div&gt;+deleteCar(Car car): void&lt;/div&gt;" style="text;strokeColor=none;fillColor=none;align=left;verticalAlign=top;spacingLeft=4;spacingRight=4;overflow=hidden;rotatable=0;points=[[0,0.5],[1,0.5]];portConstraint=eastwest;whiteSpace=wrap;html=1;" parent="JdqOerF6xTBq6fjEBsue-17" vertex="1">
          <mxGeometry y="60" width="160" height="80" as="geometry" />
        </mxCell>
        <mxCell id="JdqOerF6xTBq6fjEBsue-21" value="ModModel" style="swimlane;fontStyle=1;align=center;verticalAlign=top;childLayout=stackLayout;horizontal=1;startSize=26;horizontalStack=0;resizeParent=1;resizeParentMax=0;resizeLast=0;collapsible=1;marginBottom=0;whiteSpace=wrap;html=1;" parent="1" vertex="1">
          <mxGeometry x="270" y="-250" width="180" height="140" as="geometry" />
        </mxCell>
        <mxCell id="JdqOerF6xTBq6fjEBsue-22" value="- mods[]: Mod" style="text;strokeColor=none;fillColor=none;align=left;verticalAlign=top;spacingLeft=4;spacingRight=4;overflow=hidden;rotatable=0;points=[[0,0.5],[1,0.5]];portConstraint=eastwest;whiteSpace=wrap;html=1;" parent="JdqOerF6xTBq6fjEBsue-21" vertex="1">
          <mxGeometry y="26" width="180" height="26" as="geometry" />
        </mxCell>
        <mxCell id="JdqOerF6xTBq6fjEBsue-23" value="" style="line;strokeWidth=1;fillColor=none;align=left;verticalAlign=middle;spacingTop=-1;spacingLeft=3;spacingRight=3;rotatable=0;labelPosition=right;points=[];portConstraint=eastwest;strokeColor=inherit;" parent="JdqOerF6xTBq6fjEBsue-21" vertex="1">
          <mxGeometry y="52" width="180" height="8" as="geometry" />
        </mxCell>
        <mxCell id="JdqOerF6xTBq6fjEBsue-24" value="+ addMod(Mod mod): void&lt;div&gt;+ searchMod(Mod mod): mod&lt;/div&gt;&lt;div&gt;+ updateMod(Mod mod,&amp;nbsp; &amp;nbsp; &amp;nbsp; &amp;nbsp; &amp;nbsp; &amp;nbsp; &amp;nbsp; NewMod, newMod):void&lt;/div&gt;&lt;div&gt;+deleteMod(Mod mod): void&lt;/div&gt;" style="text;strokeColor=none;fillColor=none;align=left;verticalAlign=top;spacingLeft=4;spacingRight=4;overflow=hidden;rotatable=0;points=[[0,0.5],[1,0.5]];portConstraint=eastwest;whiteSpace=wrap;html=1;" parent="JdqOerF6xTBq6fjEBsue-21" vertex="1">
          <mxGeometry y="60" width="180" height="80" as="geometry" />
        </mxCell>
        <mxCell id="JdqOerF6xTBq6fjEBsue-25" value="UserModel" style="swimlane;fontStyle=1;align=center;verticalAlign=top;childLayout=stackLayout;horizontal=1;startSize=26;horizontalStack=0;resizeParent=1;resizeParentMax=0;resizeLast=0;collapsible=1;marginBottom=0;whiteSpace=wrap;html=1;" parent="1" vertex="1">
          <mxGeometry x="520" y="-250" width="180" height="140" as="geometry" />
        </mxCell>
        <mxCell id="JdqOerF6xTBq6fjEBsue-26" value="- users[]: User" style="text;strokeColor=none;fillColor=none;align=left;verticalAlign=top;spacingLeft=4;spacingRight=4;overflow=hidden;rotatable=0;points=[[0,0.5],[1,0.5]];portConstraint=eastwest;whiteSpace=wrap;html=1;" parent="JdqOerF6xTBq6fjEBsue-25" vertex="1">
          <mxGeometry y="26" width="180" height="26" as="geometry" />
        </mxCell>
        <mxCell id="JdqOerF6xTBq6fjEBsue-27" value="" style="line;strokeWidth=1;fillColor=none;align=left;verticalAlign=middle;spacingTop=-1;spacingLeft=3;spacingRight=3;rotatable=0;labelPosition=right;points=[];portConstraint=eastwest;strokeColor=inherit;" parent="JdqOerF6xTBq6fjEBsue-25" vertex="1">
          <mxGeometry y="52" width="180" height="8" as="geometry" />
        </mxCell>
        <mxCell id="JdqOerF6xTBq6fjEBsue-28" value="+ addUser(User user): void&lt;div&gt;+ searchUser(User user): user&lt;/div&gt;&lt;div&gt;+ updateUser(User user,&amp;nbsp; &amp;nbsp; &amp;nbsp; &amp;nbsp; &amp;nbsp; &amp;nbsp; &amp;nbsp; &amp;nbsp;NewUser, newUser):void&lt;/div&gt;&lt;div&gt;+ deleteUser(User user): void&lt;/div&gt;" style="text;strokeColor=none;fillColor=none;align=left;verticalAlign=top;spacingLeft=4;spacingRight=4;overflow=hidden;rotatable=0;points=[[0,0.5],[1,0.5]];portConstraint=eastwest;whiteSpace=wrap;html=1;" parent="JdqOerF6xTBq6fjEBsue-25" vertex="1">
          <mxGeometry y="60" width="180" height="80" as="geometry" />
        </mxCell>
        <mxCell id="JdqOerF6xTBq6fjEBsue-29" value="Controller" style="swimlane;fontStyle=1;align=center;verticalAlign=top;childLayout=stackLayout;horizontal=1;startSize=26;horizontalStack=0;resizeParent=1;resizeParentMax=0;resizeLast=0;collapsible=1;marginBottom=0;whiteSpace=wrap;html=1;" parent="1" vertex="1">
          <mxGeometry x="280" y="-584" width="160" height="314" as="geometry" />
        </mxCell>
        <mxCell id="JdqOerF6xTBq6fjEBsue-33" value="-mods[]: Mod&lt;div&gt;-cars[]: Car&lt;/div&gt;&lt;div&gt;-users[]: User&lt;/div&gt;" style="text;strokeColor=none;fillColor=none;align=left;verticalAlign=top;spacingLeft=4;spacingRight=4;overflow=hidden;rotatable=0;points=[[0,0.5],[1,0.5]];portConstraint=eastwest;whiteSpace=wrap;html=1;" parent="JdqOerF6xTBq6fjEBsue-29" vertex="1">
          <mxGeometry y="26" width="160" height="54" as="geometry" />
        </mxCell>
        <mxCell id="JdqOerF6xTBq6fjEBsue-31" value="" style="line;strokeWidth=1;fillColor=none;align=left;verticalAlign=middle;spacingTop=-1;spacingLeft=3;spacingRight=3;rotatable=0;labelPosition=right;points=[];portConstraint=eastwest;strokeColor=inherit;" parent="JdqOerF6xTBq6fjEBsue-29" vertex="1">
          <mxGeometry y="80" width="160" height="8" as="geometry" />
        </mxCell>
        <mxCell id="JdqOerF6xTBq6fjEBsue-32" value="+ addMod(): void&lt;div&gt;+ searchMod(): mod&lt;/div&gt;&lt;div&gt;+ updateMod(): void&lt;/div&gt;&lt;div&gt;+ deleteMod(): void&lt;/div&gt;&lt;div&gt;+ addCar(): void&lt;/div&gt;&lt;div&gt;+ searchCar(): car&lt;/div&gt;&lt;div&gt;+ updateCar(): void&lt;/div&gt;&lt;div&gt;+ deleteCar(): void&lt;/div&gt;&lt;div&gt;+ addUser(): void&lt;/div&gt;&lt;div&gt;+ searchUser(): user&lt;/div&gt;&lt;div&gt;+ updateUser(): void&lt;/div&gt;&lt;div&gt;+ deleteUser(): void&lt;/div&gt;&lt;div&gt;+ listMod(): mods&lt;/div&gt;&lt;div&gt;+ listCar(): cars&lt;/div&gt;&lt;div&gt;+ listUser(): users&lt;/div&gt;" style="text;strokeColor=none;fillColor=none;align=left;verticalAlign=top;spacingLeft=4;spacingRight=4;overflow=hidden;rotatable=0;points=[[0,0.5],[1,0.5]];portConstraint=eastwest;whiteSpace=wrap;html=1;" parent="JdqOerF6xTBq6fjEBsue-29" vertex="1">
          <mxGeometry y="88" width="160" height="226" as="geometry" />
        </mxCell>
        <mxCell id="JdqOerF6xTBq6fjEBsue-34" value="RegisterView" style="swimlane;fontStyle=1;align=center;verticalAlign=top;childLayout=stackLayout;horizontal=1;startSize=26;horizontalStack=0;resizeParent=1;resizeParentMax=0;resizeLast=0;collapsible=1;marginBottom=0;whiteSpace=wrap;html=1;" parent="1" vertex="1">
          <mxGeometry x="640" y="-680" width="160" height="80" as="geometry" />
        </mxCell>
        <mxCell id="JdqOerF6xTBq6fjEBsue-36" value="" style="line;strokeWidth=1;fillColor=none;align=left;verticalAlign=middle;spacingTop=-1;spacingLeft=3;spacingRight=3;rotatable=0;labelPosition=right;points=[];portConstraint=eastwest;strokeColor=inherit;" parent="JdqOerF6xTBq6fjEBsue-34" vertex="1">
          <mxGeometry y="26" width="160" height="8" as="geometry" />
        </mxCell>
        <mxCell id="JdqOerF6xTBq6fjEBsue-37" value="+ showRegisterView(): void&lt;div&gt;+ ActionListeners&lt;/div&gt;" style="text;strokeColor=none;fillColor=none;align=left;verticalAlign=top;spacingLeft=4;spacingRight=4;overflow=hidden;rotatable=0;points=[[0,0.5],[1,0.5]];portConstraint=eastwest;whiteSpace=wrap;html=1;" parent="JdqOerF6xTBq6fjEBsue-34" vertex="1">
          <mxGeometry y="34" width="160" height="46" as="geometry" />
        </mxCell>
        <mxCell id="JdqOerF6xTBq6fjEBsue-38" value="LoginView" style="swimlane;fontStyle=1;align=center;verticalAlign=top;childLayout=stackLayout;horizontal=1;startSize=26;horizontalStack=0;resizeParent=1;resizeParentMax=0;resizeLast=0;collapsible=1;marginBottom=0;whiteSpace=wrap;html=1;" parent="1" vertex="1">
          <mxGeometry x="400" y="-680" width="160" height="80" as="geometry" />
        </mxCell>
        <mxCell id="JdqOerF6xTBq6fjEBsue-39" value="" style="line;strokeWidth=1;fillColor=none;align=left;verticalAlign=middle;spacingTop=-1;spacingLeft=3;spacingRight=3;rotatable=0;labelPosition=right;points=[];portConstraint=eastwest;strokeColor=inherit;" parent="JdqOerF6xTBq6fjEBsue-38" vertex="1">
          <mxGeometry y="26" width="160" height="8" as="geometry" />
        </mxCell>
        <mxCell id="JdqOerF6xTBq6fjEBsue-40" value="+ showLoginView(): void&lt;div&gt;+ ActionListeners&lt;/div&gt;" style="text;strokeColor=none;fillColor=none;align=left;verticalAlign=top;spacingLeft=4;spacingRight=4;overflow=hidden;rotatable=0;points=[[0,0.5],[1,0.5]];portConstraint=eastwest;whiteSpace=wrap;html=1;" parent="JdqOerF6xTBq6fjEBsue-38" vertex="1">
          <mxGeometry y="34" width="160" height="46" as="geometry" />
        </mxCell>
        <mxCell id="JdqOerF6xTBq6fjEBsue-41" value="AdminView" style="swimlane;fontStyle=1;align=center;verticalAlign=top;childLayout=stackLayout;horizontal=1;startSize=26;horizontalStack=0;resizeParent=1;resizeParentMax=0;resizeLast=0;collapsible=1;marginBottom=0;whiteSpace=wrap;html=1;" parent="1" vertex="1">
          <mxGeometry x="160" y="-680" width="160" height="70" as="geometry" />
        </mxCell>
        <mxCell id="JdqOerF6xTBq6fjEBsue-42" value="" style="line;strokeWidth=1;fillColor=none;align=left;verticalAlign=middle;spacingTop=-1;spacingLeft=3;spacingRight=3;rotatable=0;labelPosition=right;points=[];portConstraint=eastwest;strokeColor=inherit;" parent="JdqOerF6xTBq6fjEBsue-41" vertex="1">
          <mxGeometry y="26" width="160" height="8" as="geometry" />
        </mxCell>
        <mxCell id="JdqOerF6xTBq6fjEBsue-43" value="+ showAdminView(): void&lt;div&gt;+ ActionListeners&lt;/div&gt;" style="text;strokeColor=none;fillColor=none;align=left;verticalAlign=top;spacingLeft=4;spacingRight=4;overflow=hidden;rotatable=0;points=[[0,0.5],[1,0.5]];portConstraint=eastwest;whiteSpace=wrap;html=1;" parent="JdqOerF6xTBq6fjEBsue-41" vertex="1">
          <mxGeometry y="34" width="160" height="36" as="geometry" />
        </mxCell>
        <mxCell id="JdqOerF6xTBq6fjEBsue-44" value="TunningView" style="swimlane;fontStyle=1;align=center;verticalAlign=top;childLayout=stackLayout;horizontal=1;startSize=26;horizontalStack=0;resizeParent=1;resizeParentMax=0;resizeLast=0;collapsible=1;marginBottom=0;whiteSpace=wrap;html=1;" parent="1" vertex="1">
          <mxGeometry x="-1240" y="-880" width="160" height="80" as="geometry" />
        </mxCell>
        <mxCell id="JdqOerF6xTBq6fjEBsue-45" value="" style="line;strokeWidth=1;fillColor=none;align=left;verticalAlign=middle;spacingTop=-1;spacingLeft=3;spacingRight=3;rotatable=0;labelPosition=right;points=[];portConstraint=eastwest;strokeColor=inherit;" parent="JdqOerF6xTBq6fjEBsue-44" vertex="1">
          <mxGeometry y="26" width="160" height="8" as="geometry" />
        </mxCell>
        <mxCell id="JdqOerF6xTBq6fjEBsue-46" value="+ showTuningView(): void&lt;div&gt;+ ActionListener&lt;/div&gt;" style="text;strokeColor=none;fillColor=none;align=left;verticalAlign=top;spacingLeft=4;spacingRight=4;overflow=hidden;rotatable=0;points=[[0,0.5],[1,0.5]];portConstraint=eastwest;whiteSpace=wrap;html=1;" parent="JdqOerF6xTBq6fjEBsue-44" vertex="1">
          <mxGeometry y="34" width="160" height="46" as="geometry" />
        </mxCell>
        <mxCell id="JdqOerF6xTBq6fjEBsue-48" value="" style="endArrow=none;html=1;rounded=0;entryX=0.489;entryY=0.987;entryDx=0;entryDy=0;entryPerimeter=0;exitX=0.5;exitY=0;exitDx=0;exitDy=0;" parent="1" source="JdqOerF6xTBq6fjEBsue-21" target="JdqOerF6xTBq6fjEBsue-32" edge="1">
          <mxGeometry width="50" height="50" relative="1" as="geometry">
            <mxPoint x="590" y="-190" as="sourcePoint" />
            <mxPoint x="640" y="-240" as="targetPoint" />
          </mxGeometry>
        </mxCell>
        <mxCell id="JdqOerF6xTBq6fjEBsue-50" value="" style="endArrow=none;html=1;rounded=0;exitX=0.5;exitY=0;exitDx=0;exitDy=0;" parent="1" source="JdqOerF6xTBq6fjEBsue-9" edge="1">
          <mxGeometry width="50" height="50" relative="1" as="geometry">
            <mxPoint x="590" y="-190" as="sourcePoint" />
            <mxPoint x="610" y="-110" as="targetPoint" />
          </mxGeometry>
        </mxCell>
        <mxCell id="JdqOerF6xTBq6fjEBsue-52" value="" style="endArrow=none;html=1;rounded=0;exitX=0.5;exitY=0;exitDx=0;exitDy=0;entryX=0.498;entryY=0.982;entryDx=0;entryDy=0;entryPerimeter=0;" parent="1" source="JdqOerF6xTBq6fjEBsue-13" target="JdqOerF6xTBq6fjEBsue-24" edge="1">
          <mxGeometry width="50" height="50" relative="1" as="geometry">
            <mxPoint x="620" y="-80" as="sourcePoint" />
            <mxPoint x="620" y="-100" as="targetPoint" />
          </mxGeometry>
        </mxCell>
        <mxCell id="JdqOerF6xTBq6fjEBsue-53" value="" style="endArrow=none;html=1;rounded=0;exitX=0.5;exitY=0;exitDx=0;exitDy=0;entryX=0.498;entryY=0.946;entryDx=0;entryDy=0;entryPerimeter=0;" parent="1" source="JdqOerF6xTBq6fjEBsue-5" target="JdqOerF6xTBq6fjEBsue-20" edge="1">
          <mxGeometry width="50" height="50" relative="1" as="geometry">
            <mxPoint x="590" y="-190" as="sourcePoint" />
            <mxPoint x="640" y="-240" as="targetPoint" />
          </mxGeometry>
        </mxCell>
        <mxCell id="oUacZrngdDr3OiEIOMdx-1" value="LoginView" style="swimlane;fontStyle=1;align=center;verticalAlign=top;childLayout=stackLayout;horizontal=1;startSize=26;horizontalStack=0;resizeParent=1;resizeParentMax=0;resizeLast=0;collapsible=1;marginBottom=0;whiteSpace=wrap;html=1;" vertex="1" parent="1">
          <mxGeometry x="-920" y="-880" width="160" height="90" as="geometry" />
        </mxCell>
        <mxCell id="oUacZrngdDr3OiEIOMdx-2" value="" style="line;strokeWidth=1;fillColor=none;align=left;verticalAlign=middle;spacingTop=-1;spacingLeft=3;spacingRight=3;rotatable=0;labelPosition=right;points=[];portConstraint=eastwest;strokeColor=inherit;" vertex="1" parent="oUacZrngdDr3OiEIOMdx-1">
          <mxGeometry y="26" width="160" height="8" as="geometry" />
        </mxCell>
        <mxCell id="oUacZrngdDr3OiEIOMdx-3" value="+ showLoginView(): void&lt;div&gt;+ showRegisterView(): void&lt;/div&gt;&lt;div&gt;+ActionListener&lt;/div&gt;" style="text;strokeColor=none;fillColor=none;align=left;verticalAlign=top;spacingLeft=4;spacingRight=4;overflow=hidden;rotatable=0;points=[[0,0.5],[1,0.5]];portConstraint=eastwest;whiteSpace=wrap;html=1;" vertex="1" parent="oUacZrngdDr3OiEIOMdx-1">
          <mxGeometry y="34" width="160" height="56" as="geometry" />
        </mxCell>
        <mxCell id="oUacZrngdDr3OiEIOMdx-4" value="RegisterView" style="swimlane;fontStyle=1;align=center;verticalAlign=top;childLayout=stackLayout;horizontal=1;startSize=26;horizontalStack=0;resizeParent=1;resizeParentMax=0;resizeLast=0;collapsible=1;marginBottom=0;whiteSpace=wrap;html=1;" vertex="1" parent="1">
          <mxGeometry y="-800" width="160" height="80" as="geometry" />
        </mxCell>
        <mxCell id="oUacZrngdDr3OiEIOMdx-5" value="" style="line;strokeWidth=1;fillColor=none;align=left;verticalAlign=middle;spacingTop=-1;spacingLeft=3;spacingRight=3;rotatable=0;labelPosition=right;points=[];portConstraint=eastwest;strokeColor=inherit;" vertex="1" parent="oUacZrngdDr3OiEIOMdx-4">
          <mxGeometry y="26" width="160" height="8" as="geometry" />
        </mxCell>
        <mxCell id="oUacZrngdDr3OiEIOMdx-6" value="+ showTuningView(): void&lt;div&gt;+ ActionListener&lt;/div&gt;" style="text;strokeColor=none;fillColor=none;align=left;verticalAlign=top;spacingLeft=4;spacingRight=4;overflow=hidden;rotatable=0;points=[[0,0.5],[1,0.5]];portConstraint=eastwest;whiteSpace=wrap;html=1;" vertex="1" parent="oUacZrngdDr3OiEIOMdx-4">
          <mxGeometry y="34" width="160" height="46" as="geometry" />
        </mxCell>
        <mxCell id="oUacZrngdDr3OiEIOMdx-8" value="AdminView(optional)" style="swimlane;fontStyle=1;align=center;verticalAlign=top;childLayout=stackLayout;horizontal=1;startSize=26;horizontalStack=0;resizeParent=1;resizeParentMax=0;resizeLast=0;collapsible=1;marginBottom=0;whiteSpace=wrap;html=1;" vertex="1" parent="1">
          <mxGeometry x="-1560" y="-880" width="160" height="70" as="geometry" />
        </mxCell>
        <mxCell id="oUacZrngdDr3OiEIOMdx-9" value="" style="line;strokeWidth=1;fillColor=none;align=left;verticalAlign=middle;spacingTop=-1;spacingLeft=3;spacingRight=3;rotatable=0;labelPosition=right;points=[];portConstraint=eastwest;strokeColor=inherit;" vertex="1" parent="oUacZrngdDr3OiEIOMdx-8">
          <mxGeometry y="26" width="160" height="8" as="geometry" />
        </mxCell>
        <mxCell id="oUacZrngdDr3OiEIOMdx-10" value="+ showAdminView(): void&lt;div&gt;+ ActionListeners&lt;/div&gt;" style="text;strokeColor=none;fillColor=none;align=left;verticalAlign=top;spacingLeft=4;spacingRight=4;overflow=hidden;rotatable=0;points=[[0,0.5],[1,0.5]];portConstraint=eastwest;whiteSpace=wrap;html=1;" vertex="1" parent="oUacZrngdDr3OiEIOMdx-8">
          <mxGeometry y="34" width="160" height="36" as="geometry" />
        </mxCell>
        <mxCell id="oUacZrngdDr3OiEIOMdx-11" value="LoginController" style="swimlane;fontStyle=1;align=center;verticalAlign=top;childLayout=stackLayout;horizontal=1;startSize=26;horizontalStack=0;resizeParent=1;resizeParentMax=0;resizeLast=0;collapsible=1;marginBottom=0;whiteSpace=wrap;html=1;" vertex="1" parent="1">
          <mxGeometry x="-920" y="-760" width="160" height="106" as="geometry" />
        </mxCell>
        <mxCell id="oUacZrngdDr3OiEIOMdx-13" value="" style="line;strokeWidth=1;fillColor=none;align=left;verticalAlign=middle;spacingTop=-1;spacingLeft=3;spacingRight=3;rotatable=0;labelPosition=right;points=[];portConstraint=eastwest;strokeColor=inherit;" vertex="1" parent="oUacZrngdDr3OiEIOMdx-11">
          <mxGeometry y="26" width="160" height="8" as="geometry" />
        </mxCell>
        <mxCell id="oUacZrngdDr3OiEIOMdx-14" value="&lt;div&gt;+ addUser(): void&lt;/div&gt;&lt;div&gt;+ searchUser(): user&lt;/div&gt;&lt;div&gt;+ updateUser(): void&lt;/div&gt;&lt;div&gt;+ accessors&lt;/div&gt;" style="text;strokeColor=none;fillColor=none;align=left;verticalAlign=top;spacingLeft=4;spacingRight=4;overflow=hidden;rotatable=0;points=[[0,0.5],[1,0.5]];portConstraint=eastwest;whiteSpace=wrap;html=1;" vertex="1" parent="oUacZrngdDr3OiEIOMdx-11">
          <mxGeometry y="34" width="160" height="72" as="geometry" />
        </mxCell>
        <mxCell id="oUacZrngdDr3OiEIOMdx-15" value="TunningController" style="swimlane;fontStyle=1;align=center;verticalAlign=top;childLayout=stackLayout;horizontal=1;startSize=26;horizontalStack=0;resizeParent=1;resizeParentMax=0;resizeLast=0;collapsible=1;marginBottom=0;whiteSpace=wrap;html=1;" vertex="1" parent="1">
          <mxGeometry x="-1250" y="-760" width="180" height="176" as="geometry" />
        </mxCell>
        <mxCell id="oUacZrngdDr3OiEIOMdx-17" value="" style="line;strokeWidth=1;fillColor=none;align=left;verticalAlign=middle;spacingTop=-1;spacingLeft=3;spacingRight=3;rotatable=0;labelPosition=right;points=[];portConstraint=eastwest;strokeColor=inherit;" vertex="1" parent="oUacZrngdDr3OiEIOMdx-15">
          <mxGeometry y="26" width="180" height="8" as="geometry" />
        </mxCell>
        <mxCell id="oUacZrngdDr3OiEIOMdx-18" value="&lt;div&gt;&lt;span style=&quot;background-color: initial;&quot;&gt;+ searchCarsFromUser(): car&lt;/span&gt;&lt;br&gt;&lt;/div&gt;&lt;div&gt;+ updateCarsFromUser(): void&lt;/div&gt;&lt;div&gt;+ deleteCarsFromUser(): void&lt;/div&gt;&lt;div&gt;+ addCarsFromUser(): void&lt;/div&gt;&lt;div&gt;+ listTunningParts():&amp;nbsp; &amp;nbsp; &amp;nbsp; &amp;nbsp; &amp;nbsp; &lt;span style=&quot;white-space: pre;&quot;&gt;&#x9;&lt;/span&gt;tunningparts&lt;/div&gt;&lt;div&gt;+ listCar(): cars&lt;/div&gt;&lt;div&gt;+ listCarsFromUser(): cars&lt;/div&gt;&lt;div&gt;+ accessors&lt;/div&gt;" style="text;strokeColor=none;fillColor=none;align=left;verticalAlign=top;spacingLeft=4;spacingRight=4;overflow=hidden;rotatable=0;points=[[0,0.5],[1,0.5]];portConstraint=eastwest;whiteSpace=wrap;html=1;" vertex="1" parent="oUacZrngdDr3OiEIOMdx-15">
          <mxGeometry y="34" width="180" height="142" as="geometry" />
        </mxCell>
        <mxCell id="oUacZrngdDr3OiEIOMdx-19" value="AdminController" style="swimlane;fontStyle=1;align=center;verticalAlign=top;childLayout=stackLayout;horizontal=1;startSize=26;horizontalStack=0;resizeParent=1;resizeParentMax=0;resizeLast=0;collapsible=1;marginBottom=0;whiteSpace=wrap;html=1;" vertex="1" parent="1">
          <mxGeometry x="-1575" y="-760" width="190" height="206" as="geometry" />
        </mxCell>
        <mxCell id="oUacZrngdDr3OiEIOMdx-21" value="" style="line;strokeWidth=1;fillColor=none;align=left;verticalAlign=middle;spacingTop=-1;spacingLeft=3;spacingRight=3;rotatable=0;labelPosition=right;points=[];portConstraint=eastwest;strokeColor=inherit;" vertex="1" parent="oUacZrngdDr3OiEIOMdx-19">
          <mxGeometry y="26" width="190" height="8" as="geometry" />
        </mxCell>
        <mxCell id="oUacZrngdDr3OiEIOMdx-22" value="+ addTunningPart(): void&lt;div&gt;+ searchTunningpart(): mod&lt;/div&gt;&lt;div&gt;+ updateTunningPart(): void&lt;/div&gt;&lt;div&gt;+ deleteTunningPart(): void&lt;/div&gt;&lt;div&gt;+ addCar(): void&lt;/div&gt;&lt;div&gt;+ searchCar(): car&lt;/div&gt;&lt;div&gt;+ updateCar(): void&lt;/div&gt;&lt;div&gt;+ deleteCar(): void&lt;/div&gt;&lt;div&gt;+ listTunningParts(): tunningparts&lt;/div&gt;&lt;div&gt;+ listCar(): cars&lt;/div&gt;&lt;div&gt;+ accessors&lt;/div&gt;" style="text;strokeColor=none;fillColor=none;align=left;verticalAlign=top;spacingLeft=4;spacingRight=4;overflow=hidden;rotatable=0;points=[[0,0.5],[1,0.5]];portConstraint=eastwest;whiteSpace=wrap;html=1;" vertex="1" parent="oUacZrngdDr3OiEIOMdx-19">
          <mxGeometry y="34" width="190" height="172" as="geometry" />
        </mxCell>
        <mxCell id="oUacZrngdDr3OiEIOMdx-23" value="CarModel" style="swimlane;fontStyle=1;align=center;verticalAlign=top;childLayout=stackLayout;horizontal=1;startSize=26;horizontalStack=0;resizeParent=1;resizeParentMax=0;resizeLast=0;collapsible=1;marginBottom=0;whiteSpace=wrap;html=1;" vertex="1" parent="1">
          <mxGeometry x="-1510" y="-480" width="160" height="160" as="geometry" />
        </mxCell>
        <mxCell id="oUacZrngdDr3OiEIOMdx-24" value="- cars[]: Car" style="text;strokeColor=none;fillColor=none;align=left;verticalAlign=top;spacingLeft=4;spacingRight=4;overflow=hidden;rotatable=0;points=[[0,0.5],[1,0.5]];portConstraint=eastwest;whiteSpace=wrap;html=1;" vertex="1" parent="oUacZrngdDr3OiEIOMdx-23">
          <mxGeometry y="26" width="160" height="26" as="geometry" />
        </mxCell>
        <mxCell id="oUacZrngdDr3OiEIOMdx-25" value="" style="line;strokeWidth=1;fillColor=none;align=left;verticalAlign=middle;spacingTop=-1;spacingLeft=3;spacingRight=3;rotatable=0;labelPosition=right;points=[];portConstraint=eastwest;strokeColor=inherit;" vertex="1" parent="oUacZrngdDr3OiEIOMdx-23">
          <mxGeometry y="52" width="160" height="8" as="geometry" />
        </mxCell>
        <mxCell id="oUacZrngdDr3OiEIOMdx-26" value="+ addCar(Car car): void&lt;div&gt;+ searchCar(Car car): car&lt;/div&gt;&lt;div&gt;+ updateCar(Car car,&amp;nbsp; &amp;nbsp; &amp;nbsp; &amp;nbsp; &amp;nbsp; &amp;nbsp; &amp;nbsp; &amp;nbsp;NewCar, newCar):void&lt;/div&gt;&lt;div&gt;+deleteCar(Car car): void&lt;/div&gt;&lt;div&gt;+ accessors&lt;/div&gt;" style="text;strokeColor=none;fillColor=none;align=left;verticalAlign=top;spacingLeft=4;spacingRight=4;overflow=hidden;rotatable=0;points=[[0,0.5],[1,0.5]];portConstraint=eastwest;whiteSpace=wrap;html=1;" vertex="1" parent="oUacZrngdDr3OiEIOMdx-23">
          <mxGeometry y="60" width="160" height="100" as="geometry" />
        </mxCell>
        <mxCell id="oUacZrngdDr3OiEIOMdx-27" value="UserModel" style="swimlane;fontStyle=1;align=center;verticalAlign=top;childLayout=stackLayout;horizontal=1;startSize=26;horizontalStack=0;resizeParent=1;resizeParentMax=0;resizeLast=0;collapsible=1;marginBottom=0;whiteSpace=wrap;html=1;" vertex="1" parent="1">
          <mxGeometry x="-970" y="-480" width="190" height="278" as="geometry" />
        </mxCell>
        <mxCell id="oUacZrngdDr3OiEIOMdx-28" value="- users[]: User&lt;div&gt;- myCars[]: Car&lt;/div&gt;" style="text;strokeColor=none;fillColor=none;align=left;verticalAlign=top;spacingLeft=4;spacingRight=4;overflow=hidden;rotatable=0;points=[[0,0.5],[1,0.5]];portConstraint=eastwest;whiteSpace=wrap;html=1;" vertex="1" parent="oUacZrngdDr3OiEIOMdx-27">
          <mxGeometry y="26" width="190" height="34" as="geometry" />
        </mxCell>
        <mxCell id="oUacZrngdDr3OiEIOMdx-29" value="" style="line;strokeWidth=1;fillColor=none;align=left;verticalAlign=middle;spacingTop=-1;spacingLeft=3;spacingRight=3;rotatable=0;labelPosition=right;points=[];portConstraint=eastwest;strokeColor=inherit;" vertex="1" parent="oUacZrngdDr3OiEIOMdx-27">
          <mxGeometry y="60" width="190" height="8" as="geometry" />
        </mxCell>
        <mxCell id="oUacZrngdDr3OiEIOMdx-30" value="+ addUser(User user): void&lt;div&gt;+ searchUser(User user): user&lt;/div&gt;&lt;div&gt;+ updateUser(User user,&amp;nbsp; &amp;nbsp; &amp;nbsp; &amp;nbsp; &amp;nbsp; &amp;nbsp; &amp;nbsp; &amp;nbsp;NewUser, newUser):void&lt;/div&gt;&lt;div&gt;+ deleteUser(User user): void&lt;/div&gt;&lt;div&gt;+ addCarsFromUser(Car car): &lt;span style=&quot;white-space: pre;&quot;&gt;&#x9;&lt;/span&gt;void&lt;/div&gt;&lt;div&gt;+ deleteCarsFromUser(Car car): &lt;span style=&quot;white-space: pre;&quot;&gt;&#x9;&lt;/span&gt;void&lt;/div&gt;&lt;div&gt;+ updateCarsFromUser(Car car, &lt;span style=&quot;white-space: pre;&quot;&gt;&#x9;&lt;/span&gt;NewCar newcar): void&lt;/div&gt;&lt;div&gt;+ searchCarFromUser(Car car): &lt;span style=&quot;white-space: pre;&quot;&gt;&#x9;&lt;/span&gt;car&lt;/div&gt;&lt;div&gt;+ accessors&lt;/div&gt;" style="text;strokeColor=none;fillColor=none;align=left;verticalAlign=top;spacingLeft=4;spacingRight=4;overflow=hidden;rotatable=0;points=[[0,0.5],[1,0.5]];portConstraint=eastwest;whiteSpace=wrap;html=1;" vertex="1" parent="oUacZrngdDr3OiEIOMdx-27">
          <mxGeometry y="68" width="190" height="210" as="geometry" />
        </mxCell>
        <mxCell id="oUacZrngdDr3OiEIOMdx-31" value="TunningPartModel" style="swimlane;fontStyle=1;align=center;verticalAlign=top;childLayout=stackLayout;horizontal=1;startSize=26;horizontalStack=0;resizeParent=1;resizeParentMax=0;resizeLast=0;collapsible=1;marginBottom=0;whiteSpace=wrap;html=1;" vertex="1" parent="1">
          <mxGeometry x="-1260" y="-480" width="200" height="210" as="geometry" />
        </mxCell>
        <mxCell id="oUacZrngdDr3OiEIOMdx-32" value="- tunningpart[]: Tunningpart" style="text;strokeColor=none;fillColor=none;align=left;verticalAlign=top;spacingLeft=4;spacingRight=4;overflow=hidden;rotatable=0;points=[[0,0.5],[1,0.5]];portConstraint=eastwest;whiteSpace=wrap;html=1;" vertex="1" parent="oUacZrngdDr3OiEIOMdx-31">
          <mxGeometry y="26" width="200" height="26" as="geometry" />
        </mxCell>
        <mxCell id="oUacZrngdDr3OiEIOMdx-33" value="" style="line;strokeWidth=1;fillColor=none;align=left;verticalAlign=middle;spacingTop=-1;spacingLeft=3;spacingRight=3;rotatable=0;labelPosition=right;points=[];portConstraint=eastwest;strokeColor=inherit;" vertex="1" parent="oUacZrngdDr3OiEIOMdx-31">
          <mxGeometry y="52" width="200" height="8" as="geometry" />
        </mxCell>
        <mxCell id="oUacZrngdDr3OiEIOMdx-34" value="+ addTunningPart(Tunningpart &lt;span style=&quot;white-space: pre;&quot;&gt;&#x9;&lt;/span&gt;tunningpart): void&lt;div&gt;+ searchTunningpart(Tunningpart tunningpart): tunningpart&lt;/div&gt;&lt;div&gt;+ updateTunningpart(Tunningpart &lt;span style=&quot;white-space: pre;&quot;&gt;&#x9;&lt;/span&gt;tunningpart, NewTunningPart &lt;span style=&quot;white-space: pre;&quot;&gt;&#x9;&lt;/span&gt;newTunningPart ):void&lt;/div&gt;&lt;div&gt;+deleteTunningPart(Tunningpart &lt;span style=&quot;white-space: pre;&quot;&gt;&#x9;&lt;/span&gt;tunningparts): void&lt;/div&gt;&lt;div&gt;+ accessors&lt;/div&gt;" style="text;strokeColor=none;fillColor=none;align=left;verticalAlign=top;spacingLeft=4;spacingRight=4;overflow=hidden;rotatable=0;points=[[0,0.5],[1,0.5]];portConstraint=eastwest;whiteSpace=wrap;html=1;" vertex="1" parent="oUacZrngdDr3OiEIOMdx-31">
          <mxGeometry y="60" width="200" height="150" as="geometry" />
        </mxCell>
        <mxCell id="oUacZrngdDr3OiEIOMdx-35" value="Car" style="swimlane;fontStyle=1;align=center;verticalAlign=top;childLayout=stackLayout;horizontal=1;startSize=26;horizontalStack=0;resizeParent=1;resizeParentMax=0;resizeLast=0;collapsible=1;marginBottom=0;whiteSpace=wrap;html=1;" vertex="1" parent="1">
          <mxGeometry x="-1510" y="-240" width="160" height="220" as="geometry" />
        </mxCell>
        <mxCell id="oUacZrngdDr3OiEIOMdx-36" value="- model: String&lt;div&gt;- brand: String&lt;/div&gt;&lt;div&gt;- horsepower: int&lt;/div&gt;&lt;div&gt;- brakeForce: double&lt;/div&gt;&lt;div&gt;- posture: double&lt;/div&gt;&lt;div&gt;- weight: double&lt;/div&gt;&lt;div&gt;highspeed: int&lt;/div&gt;&lt;div&gt;acceleration: double&lt;/div&gt;&lt;div&gt;image: ?&lt;/div&gt;&lt;div&gt;price: double&lt;/div&gt;&lt;div&gt;tunningParts[]: tunningPart&lt;/div&gt;" style="text;strokeColor=none;fillColor=none;align=left;verticalAlign=top;spacingLeft=4;spacingRight=4;overflow=hidden;rotatable=0;points=[[0,0.5],[1,0.5]];portConstraint=eastwest;whiteSpace=wrap;html=1;" vertex="1" parent="oUacZrngdDr3OiEIOMdx-35">
          <mxGeometry y="26" width="160" height="164" as="geometry" />
        </mxCell>
        <mxCell id="oUacZrngdDr3OiEIOMdx-37" value="" style="line;strokeWidth=1;fillColor=none;align=left;verticalAlign=middle;spacingTop=-1;spacingLeft=3;spacingRight=3;rotatable=0;labelPosition=right;points=[];portConstraint=eastwest;strokeColor=inherit;" vertex="1" parent="oUacZrngdDr3OiEIOMdx-35">
          <mxGeometry y="190" width="160" height="8" as="geometry" />
        </mxCell>
        <mxCell id="oUacZrngdDr3OiEIOMdx-38" value="+accessors" style="text;strokeColor=none;fillColor=none;align=left;verticalAlign=top;spacingLeft=4;spacingRight=4;overflow=hidden;rotatable=0;points=[[0,0.5],[1,0.5]];portConstraint=eastwest;whiteSpace=wrap;html=1;" vertex="1" parent="oUacZrngdDr3OiEIOMdx-35">
          <mxGeometry y="198" width="160" height="22" as="geometry" />
        </mxCell>
        <mxCell id="oUacZrngdDr3OiEIOMdx-39" value="User" style="swimlane;fontStyle=1;align=center;verticalAlign=top;childLayout=stackLayout;horizontal=1;startSize=26;horizontalStack=0;resizeParent=1;resizeParentMax=0;resizeLast=0;collapsible=1;marginBottom=0;whiteSpace=wrap;html=1;" vertex="1" parent="1">
          <mxGeometry x="-955" y="-140" width="160" height="110" as="geometry" />
        </mxCell>
        <mxCell id="oUacZrngdDr3OiEIOMdx-40" value="- username&lt;div&gt;- password&lt;/div&gt;&lt;div&gt;- myCars[]: Car&lt;/div&gt;" style="text;strokeColor=none;fillColor=none;align=left;verticalAlign=top;spacingLeft=4;spacingRight=4;overflow=hidden;rotatable=0;points=[[0,0.5],[1,0.5]];portConstraint=eastwest;whiteSpace=wrap;html=1;" vertex="1" parent="oUacZrngdDr3OiEIOMdx-39">
          <mxGeometry y="26" width="160" height="54" as="geometry" />
        </mxCell>
        <mxCell id="oUacZrngdDr3OiEIOMdx-41" value="" style="line;strokeWidth=1;fillColor=none;align=left;verticalAlign=middle;spacingTop=-1;spacingLeft=3;spacingRight=3;rotatable=0;labelPosition=right;points=[];portConstraint=eastwest;strokeColor=inherit;" vertex="1" parent="oUacZrngdDr3OiEIOMdx-39">
          <mxGeometry y="80" width="160" height="8" as="geometry" />
        </mxCell>
        <mxCell id="oUacZrngdDr3OiEIOMdx-42" value="+accessors" style="text;strokeColor=none;fillColor=none;align=left;verticalAlign=top;spacingLeft=4;spacingRight=4;overflow=hidden;rotatable=0;points=[[0,0.5],[1,0.5]];portConstraint=eastwest;whiteSpace=wrap;html=1;" vertex="1" parent="oUacZrngdDr3OiEIOMdx-39">
          <mxGeometry y="88" width="160" height="22" as="geometry" />
        </mxCell>
        <mxCell id="oUacZrngdDr3OiEIOMdx-43" value="TunningPart" style="swimlane;fontStyle=1;align=center;verticalAlign=top;childLayout=stackLayout;horizontal=1;startSize=26;horizontalStack=0;resizeParent=1;resizeParentMax=0;resizeLast=0;collapsible=1;marginBottom=0;whiteSpace=wrap;html=1;" vertex="1" parent="1">
          <mxGeometry x="-1250" y="-240" width="180" height="210" as="geometry" />
        </mxCell>
        <mxCell id="oUacZrngdDr3OiEIOMdx-44" value="- name: String&lt;div&gt;- category: String&lt;/div&gt;&lt;div&gt;- changeOfHorsePower: int&lt;/div&gt;&lt;div&gt;- changeOfBrakeForce: double&lt;/div&gt;&lt;div&gt;- changeOfPosture: double&lt;/div&gt;&lt;div&gt;- changeOfWeight: double&lt;/div&gt;&lt;div&gt;- changeOfHighspeed: int&lt;/div&gt;&lt;div&gt;- changeOfAcceleration: double&lt;/div&gt;&lt;div&gt;- changeOfPrice&lt;/div&gt;&lt;div&gt;- image: ?&lt;/div&gt;" style="text;strokeColor=none;fillColor=none;align=left;verticalAlign=top;spacingLeft=4;spacingRight=4;overflow=hidden;rotatable=0;points=[[0,0.5],[1,0.5]];portConstraint=eastwest;whiteSpace=wrap;html=1;" vertex="1" parent="oUacZrngdDr3OiEIOMdx-43">
          <mxGeometry y="26" width="180" height="154" as="geometry" />
        </mxCell>
        <mxCell id="oUacZrngdDr3OiEIOMdx-45" value="" style="line;strokeWidth=1;fillColor=none;align=left;verticalAlign=middle;spacingTop=-1;spacingLeft=3;spacingRight=3;rotatable=0;labelPosition=right;points=[];portConstraint=eastwest;strokeColor=inherit;" vertex="1" parent="oUacZrngdDr3OiEIOMdx-43">
          <mxGeometry y="180" width="180" height="8" as="geometry" />
        </mxCell>
        <mxCell id="oUacZrngdDr3OiEIOMdx-46" value="+accessors" style="text;strokeColor=none;fillColor=none;align=left;verticalAlign=top;spacingLeft=4;spacingRight=4;overflow=hidden;rotatable=0;points=[[0,0.5],[1,0.5]];portConstraint=eastwest;whiteSpace=wrap;html=1;" vertex="1" parent="oUacZrngdDr3OiEIOMdx-43">
          <mxGeometry y="188" width="180" height="22" as="geometry" />
        </mxCell>
        <mxCell id="oUacZrngdDr3OiEIOMdx-47" value="" style="endArrow=none;html=1;rounded=0;exitX=0.5;exitY=0;exitDx=0;exitDy=0;" edge="1" parent="1" source="oUacZrngdDr3OiEIOMdx-39" target="oUacZrngdDr3OiEIOMdx-30">
          <mxGeometry width="50" height="50" relative="1" as="geometry">
            <mxPoint x="-90" y="-210" as="sourcePoint" />
            <mxPoint x="-40" y="-260" as="targetPoint" />
          </mxGeometry>
        </mxCell>
        <mxCell id="oUacZrngdDr3OiEIOMdx-48" value="" style="endArrow=none;html=1;rounded=0;exitX=0.5;exitY=0;exitDx=0;exitDy=0;" edge="1" parent="1" source="oUacZrngdDr3OiEIOMdx-27" target="oUacZrngdDr3OiEIOMdx-14">
          <mxGeometry width="50" height="50" relative="1" as="geometry">
            <mxPoint x="-90" y="-210" as="sourcePoint" />
            <mxPoint x="-40" y="-260" as="targetPoint" />
          </mxGeometry>
        </mxCell>
        <mxCell id="oUacZrngdDr3OiEIOMdx-49" value="" style="endArrow=none;html=1;rounded=0;exitX=0.5;exitY=0;exitDx=0;exitDy=0;" edge="1" parent="1" source="oUacZrngdDr3OiEIOMdx-11" target="oUacZrngdDr3OiEIOMdx-3">
          <mxGeometry width="50" height="50" relative="1" as="geometry">
            <mxPoint x="-90" y="-210" as="sourcePoint" />
            <mxPoint x="-40" y="-260" as="targetPoint" />
          </mxGeometry>
        </mxCell>
        <mxCell id="oUacZrngdDr3OiEIOMdx-50" value="" style="endArrow=none;html=1;rounded=0;exitX=0.5;exitY=0;exitDx=0;exitDy=0;" edge="1" parent="1" source="oUacZrngdDr3OiEIOMdx-43" target="oUacZrngdDr3OiEIOMdx-34">
          <mxGeometry width="50" height="50" relative="1" as="geometry">
            <mxPoint x="-380" y="-110" as="sourcePoint" />
            <mxPoint x="-40" y="-260" as="targetPoint" />
          </mxGeometry>
        </mxCell>
        <mxCell id="oUacZrngdDr3OiEIOMdx-51" value="" style="endArrow=none;html=1;rounded=0;exitX=0.5;exitY=0;exitDx=0;exitDy=0;" edge="1" parent="1" source="oUacZrngdDr3OiEIOMdx-35" target="oUacZrngdDr3OiEIOMdx-26">
          <mxGeometry width="50" height="50" relative="1" as="geometry">
            <mxPoint x="-90" y="-210" as="sourcePoint" />
            <mxPoint x="-40" y="-260" as="targetPoint" />
          </mxGeometry>
        </mxCell>
        <mxCell id="oUacZrngdDr3OiEIOMdx-52" value="" style="endArrow=none;html=1;rounded=0;entryX=0.5;entryY=0;entryDx=0;entryDy=0;" edge="1" parent="1" source="oUacZrngdDr3OiEIOMdx-18" target="oUacZrngdDr3OiEIOMdx-31">
          <mxGeometry width="50" height="50" relative="1" as="geometry">
            <mxPoint x="-90" y="-210" as="sourcePoint" />
            <mxPoint x="-40" y="-260" as="targetPoint" />
          </mxGeometry>
        </mxCell>
        <mxCell id="oUacZrngdDr3OiEIOMdx-53" value="" style="endArrow=none;html=1;rounded=0;exitX=0.5;exitY=0;exitDx=0;exitDy=0;" edge="1" parent="1" source="oUacZrngdDr3OiEIOMdx-23" target="oUacZrngdDr3OiEIOMdx-22">
          <mxGeometry width="50" height="50" relative="1" as="geometry">
            <mxPoint x="-90" y="-210" as="sourcePoint" />
            <mxPoint x="-1050" y="-580" as="targetPoint" />
          </mxGeometry>
        </mxCell>
        <mxCell id="oUacZrngdDr3OiEIOMdx-54" value="" style="endArrow=none;html=1;rounded=0;exitX=0.5;exitY=0;exitDx=0;exitDy=0;" edge="1" parent="1" source="oUacZrngdDr3OiEIOMdx-15" target="JdqOerF6xTBq6fjEBsue-46">
          <mxGeometry width="50" height="50" relative="1" as="geometry">
            <mxPoint x="-90" y="-210" as="sourcePoint" />
            <mxPoint x="-40" y="-260" as="targetPoint" />
          </mxGeometry>
        </mxCell>
        <mxCell id="oUacZrngdDr3OiEIOMdx-55" value="" style="endArrow=none;html=1;rounded=0;exitX=0.5;exitY=0;exitDx=0;exitDy=0;" edge="1" parent="1" source="oUacZrngdDr3OiEIOMdx-19" target="oUacZrngdDr3OiEIOMdx-10">
          <mxGeometry width="50" height="50" relative="1" as="geometry">
            <mxPoint x="-90" y="-210" as="sourcePoint" />
            <mxPoint x="-40" y="-260" as="targetPoint" />
          </mxGeometry>
        </mxCell>
        <mxCell id="oUacZrngdDr3OiEIOMdx-56" value="" style="endArrow=none;html=1;rounded=0;exitX=0.25;exitY=0;exitDx=0;exitDy=0;" edge="1" parent="1" source="oUacZrngdDr3OiEIOMdx-31" target="oUacZrngdDr3OiEIOMdx-22">
          <mxGeometry width="50" height="50" relative="1" as="geometry">
            <mxPoint x="-90" y="-210" as="sourcePoint" />
            <mxPoint x="-40" y="-260" as="targetPoint" />
          </mxGeometry>
        </mxCell>
        <mxCell id="oUacZrngdDr3OiEIOMdx-57" value="" style="endArrow=none;html=1;rounded=0;exitX=0.25;exitY=0;exitDx=0;exitDy=0;" edge="1" parent="1" source="oUacZrngdDr3OiEIOMdx-27" target="oUacZrngdDr3OiEIOMdx-18">
          <mxGeometry width="50" height="50" relative="1" as="geometry">
            <mxPoint x="-90" y="-210" as="sourcePoint" />
            <mxPoint x="-40" y="-260" as="targetPoint" />
          </mxGeometry>
        </mxCell>
        <mxCell id="oUacZrngdDr3OiEIOMdx-58" value="" style="endArrow=none;html=1;rounded=0;exitX=0.75;exitY=0;exitDx=0;exitDy=0;" edge="1" parent="1" source="oUacZrngdDr3OiEIOMdx-23" target="oUacZrngdDr3OiEIOMdx-18">
          <mxGeometry width="50" height="50" relative="1" as="geometry">
            <mxPoint x="-90" y="-210" as="sourcePoint" />
            <mxPoint x="-40" y="-260" as="targetPoint" />
          </mxGeometry>
        </mxCell>
      </root>
    </mxGraphModel>
  </diagram>
</mxfile>
